<svg xmlns="http://www.w3.org/2000/svg" width="36" height="36" viewBox="0 0 36 36" class="accordion-image app-icon--normal" data-identifyElement="523"><g fill="none" fill-rule="evenodd" data-identifyElement="524"><path fill="#DADFE3" d="M28.476 20.815A9.375 9.375 0 0119.1 30.19a9.375 9.375 0 01-9.375-9.375A9.375 9.375 0 0119.1 11.44a9.375 9.375 0 019.375 9.375" data-identifyElement="525"></path><path fill="#EDF2F1" d="M17.164 5.853V2.751h2.069v3.102" data-identifyElement="526"></path><path stroke="#000" stroke-linecap="round" stroke-linejoin="round" stroke-width="1.5" d="M17.164 5.853V2.751h2.069v3.102" data-identifyElement="527"></path><path fill="#EDF2F1" d="M16.13 2.75h4.137" data-identifyElement="528"></path><path stroke="#000" stroke-linecap="round" stroke-linejoin="round" stroke-width="1.5" d="M16.13 2.75h4.137" data-identifyElement="529"></path><path fill="#EDF2F1" d="M26.025 8.371l2.07-2.069" data-identifyElement="530"></path><path stroke="#000" stroke-linecap="round" stroke-linejoin="round" stroke-width="1.5" d="M26.025 8.371l2.07-2.069" data-identifyElement="531"></path><path stroke="#6F7C87" stroke-linecap="round" stroke-linejoin="round" stroke-width="1.5" d="M31.646 19.302c0 7.427-6.02 13.448-13.448 13.448-7.428 0-13.449-6.021-13.449-13.448 0-7.427 6.022-13.448 13.45-13.448 7.426 0 13.447 6.02 13.447 13.448z" data-identifyElement="532"></path><path stroke="#6F7C87" stroke-linecap="round" stroke-linejoin="round" stroke-width="1.5" d="M27.513 19.302a9.315 9.315 0 01-9.315 9.315 9.314 9.314 0 01-9.315-9.315 9.314 9.314 0 019.315-9.315 9.315 9.315 0 019.315 9.315z" data-identifyElement="533"></path><path fill="#EDF2F1" d="M29.54 5.502a.845.845 0 10-1.69 0 .845.845 0 001.69 0" data-identifyElement="534"></path><path fill="#000" d="M28.694 3.157a2.348 2.348 0 00-2.345 2.345 2.348 2.348 0 002.345 2.345 2.348 2.348 0 002.345-2.345 2.348 2.348 0 00-2.345-2.345m0 1.5a.845.845 0 11.001 1.69.845.845 0 010-1.69" data-identifyElement="535"></path><path fill="#DADFE3" d="M17.006 20.68l.898-8.546c.037-.357.557-.357.594 0l.891 8.482c.063.596-.286 1.19-.863 1.347a1.202 1.202 0 01-1.52-1.283" data-identifyElement="536"></path><path fill="#000" d="M18.201 11.866a.29.29 0 00-.297.268l-.898 8.546a1.202 1.202 0 001.519 1.283c.578-.157.927-.752.864-1.347l-.89-8.482a.29.29 0 00-.298-.268" data-identifyElement="537"></path></g></svg>